<svg xmlns="http://www.w3.org/2000/svg" width="720" height="300" viewBox="0 0 720 300">
  <text x="8" y="33" font-family="ui-monospace,SFMono-Regular,Menlo,monospace" font-size="15" fill="#8b8b8b">catppuccin</text>
  <rect x="150" y="6" width="292" height="40" rx="8" fill="#1e1e2e"/>
  <rect x="162" y="14" width="26" height="24" rx="4" fill="#313244"/>
  <rect x="196" y="14" width="26" height="24" rx="4" fill="#cba6f7"/>
  <rect x="230" y="14" width="26" height="24" rx="4" fill="#89b4fa"/>
  <rect x="264" y="14" width="26" height="24" rx="4" fill="#f38ba8"/>
  <rect x="298" y="14" width="26" height="24" rx="4" fill="#a6e3a1"/>
  <rect x="332" y="14" width="26" height="24" rx="4" fill="#f9e2af"/>
  <rect x="366" y="14" width="26" height="24" rx="4" fill="#89b4fa"/>
  <rect x="400" y="14" width="26" height="24" rx="4" fill="#cdd6f4"/>
  <text x="458" y="33" font-family="ui-monospace,SFMono-Regular,Menlo,monospace" font-size="14" fill="#8b8b8b">Catppuccin Mocha</text>
  <text x="8" y="81" font-family="ui-monospace,SFMono-Regular,Menlo,monospace" font-size="15" fill="#8b8b8b">gruvbox</text>
  <rect x="150" y="54" width="292" height="40" rx="8" fill="#282828"/>
  <rect x="162" y="62" width="26" height="24" rx="4" fill="#3c3836"/>
  <rect x="196" y="62" width="26" height="24" rx="4" fill="#fe8019"/>
  <rect x="230" y="62" width="26" height="24" rx="4" fill="#83a598"/>
  <rect x="264" y="62" width="26" height="24" rx="4" fill="#fb4934"/>
  <rect x="298" y="62" width="26" height="24" rx="4" fill="#b8bb26"/>
  <rect x="332" y="62" width="26" height="24" rx="4" fill="#fabd2f"/>
  <rect x="366" y="62" width="26" height="24" rx="4" fill="#83a598"/>
  <rect x="400" y="62" width="26" height="24" rx="4" fill="#ebdbb2"/>
  <text x="458" y="81" font-family="ui-monospace,SFMono-Regular,Menlo,monospace" font-size="14" fill="#8b8b8b">Gruvbox Dark</text>
  <text x="8" y="129" font-family="ui-monospace,SFMono-Regular,Menlo,monospace" font-size="15" fill="#8b8b8b">kanagawa</text>
  <rect x="150" y="102" width="292" height="40" rx="0" fill="#181616"/>
  <rect x="162" y="110" width="26" height="24" rx="0" fill="#282727"/>
  <rect x="196" y="110" width="26" height="24" rx="0" fill="#8ba4b0"/>
  <rect x="230" y="110" width="26" height="24" rx="0" fill="#8992a7"/>
  <rect x="264" y="110" width="26" height="24" rx="0" fill="#c4746e"/>
  <rect x="298" y="110" width="26" height="24" rx="0" fill="#8a9a7b"/>
  <rect x="332" y="110" width="26" height="24" rx="0" fill="#c4b28a"/>
  <rect x="366" y="110" width="26" height="24" rx="0" fill="#8ba4b0"/>
  <rect x="400" y="110" width="26" height="24" rx="0" fill="#c5c9c5"/>
  <text x="458" y="129" font-family="ui-monospace,SFMono-Regular,Menlo,monospace" font-size="14" fill="#8b8b8b">Kanagawa Dragon</text>
  <text x="8" y="177" font-family="ui-monospace,SFMono-Regular,Menlo,monospace" font-size="15" fill="#8b8b8b">nord</text>
  <rect x="150" y="150" width="292" height="40" rx="8" fill="#2e3440"/>
  <rect x="162" y="158" width="26" height="24" rx="4" fill="#3b4252"/>
  <rect x="196" y="158" width="26" height="24" rx="4" fill="#88c0d0"/>
  <rect x="230" y="158" width="26" height="24" rx="4" fill="#81a1c1"/>
  <rect x="264" y="158" width="26" height="24" rx="4" fill="#bf616a"/>
  <rect x="298" y="158" width="26" height="24" rx="4" fill="#a3be8c"/>
  <rect x="332" y="158" width="26" height="24" rx="4" fill="#ebcb8b"/>
  <rect x="366" y="158" width="26" height="24" rx="4" fill="#81a1c1"/>
  <rect x="400" y="158" width="26" height="24" rx="4" fill="#eceff4"/>
  <text x="458" y="177" font-family="ui-monospace,SFMono-Regular,Menlo,monospace" font-size="14" fill="#8b8b8b">Nord</text>
  <text x="8" y="225" font-family="ui-monospace,SFMono-Regular,Menlo,monospace" font-size="15" fill="#8b8b8b">rosepine</text>
  <rect x="150" y="198" width="292" height="40" rx="8" fill="#191724"/>
  <rect x="162" y="206" width="26" height="24" rx="4" fill="#26233a"/>
  <rect x="196" y="206" width="26" height="24" rx="4" fill="#c4a7e7"/>
  <rect x="230" y="206" width="26" height="24" rx="4" fill="#9ccfd8"/>
  <rect x="264" y="206" width="26" height="24" rx="4" fill="#eb6f92"/>
  <rect x="298" y="206" width="26" height="24" rx="4" fill="#31748f"/>
  <rect x="332" y="206" width="26" height="24" rx="4" fill="#f6c177"/>
  <rect x="366" y="206" width="26" height="24" rx="4" fill="#9ccfd8"/>
  <rect x="400" y="206" width="26" height="24" rx="4" fill="#e0def4"/>
  <text x="458" y="225" font-family="ui-monospace,SFMono-Regular,Menlo,monospace" font-size="14" fill="#8b8b8b">Rosé Pine</text>
  <text x="8" y="273" font-family="ui-monospace,SFMono-Regular,Menlo,monospace" font-size="15" fill="#8b8b8b">tokyonight</text>
  <rect x="150" y="246" width="292" height="40" rx="8" fill="#1a1b26"/>
  <rect x="162" y="254" width="26" height="24" rx="4" fill="#24283b"/>
  <rect x="196" y="254" width="26" height="24" rx="4" fill="#bb9af7"/>
  <rect x="230" y="254" width="26" height="24" rx="4" fill="#7aa2f7"/>
  <rect x="264" y="254" width="26" height="24" rx="4" fill="#f7768e"/>
  <rect x="298" y="254" width="26" height="24" rx="4" fill="#9ece6a"/>
  <rect x="332" y="254" width="26" height="24" rx="4" fill="#e0af68"/>
  <rect x="366" y="254" width="26" height="24" rx="4" fill="#7aa2f7"/>
  <rect x="400" y="254" width="26" height="24" rx="4" fill="#c0caf5"/>
  <text x="458" y="273" font-family="ui-monospace,SFMono-Regular,Menlo,monospace" font-size="14" fill="#8b8b8b">Tokyo Night</text>
</svg>
